# xmcd
#
# Track frame offsets:
# 183
# 11523
# 23628
# 36783
# 50788
# 62358
# 74388
# 90160
# 102458
# 113108
# 123408
# 136945
# 156100
# 168483
# 181265
# 195445
#
# Disc length: 2817 seconds
#
#
# Revision: 4
# Processed by: cddbd v1.5.2PL0 Copyright (c) Steve Scherf et al.
# Submitted via: FreeRIP 2.944 
#
DISCID=ca0aff10
DTITLE=Various Artist - Downtown Blues
DYEAR=1996
DGENRE=Blues
TTITLE0=John Lee Hooker - Boom Boom Boom
TTITLE1=Jimmy Reed - Honest I Do
TTITLE2=Elmore James - Dust My Broom
TTITLE3=Ray Charles - Baby Let Me Hold Your Hand
TTITLE4=Little Richard - Need Him
TTITLE5=Lightnin' Slim - Rooster Blues
TTITLE6=Screamin' Jay Hawkins - I Put A Spell On You
TTITLE7=Louis Jordan - Caldonia
TTITLE8=Fats Domino - Blueberry Hill
TTITLE9=John Lee Hooker - Dimples
TTITLE10=Ted Taylor - She's A Winner
TTITLE11=Big Joe Turner - When The Sun Goes Down
TTITLE12=Rod Stewart - Moppers Blues
TTITLE13=Jimmy Reed - Shame Shame Shame
TTITLE14=Canned Heat - Rollin' and Tumblin'
TTITLE15=Tony Joe White - Polk Salad Annie
EXTD=
EXTT0=
EXTT1=
EXTT2=
EXTT3=
EXTT4=
EXTT5=
EXTT6=
EXTT7=
EXTT8=
EXTT9=
EXTT10=
EXTT11=
EXTT12=
EXTT13=
EXTT14=
EXTT15=
PLAYORDER=
